<svg width="24" height="24" viewBox="0 0 24 24" fill="none" xmlns="http://www.w3.org/2000/svg">
<path d="M19 5H13V2H11V5H5C3.346 5 2 6.346 2 8V18C2 19.103 2.897 20 4 20H20C21.103 20 22 19.103 22 18V8C22 6.346 20.654 5 19 5ZM5 7H19C19.2652 7 19.5196 7.10536 19.7071 7.29289C19.8946 7.48043 20 7.73478 20 8L20.001 11.12C19.105 11.348 18.532 11.854 18.085 12.252C17.578 12.702 17.243 13 16.497 13C15.752 13 15.417 12.702 14.91 12.253C14.315 11.724 13.501 11 11.995 11C10.49 11 9.676 11.724 9.081 12.253C8.574 12.703 8.24 13 7.495 13C6.752 13 6.418 12.703 5.913 12.253C5.466 11.855 4.895 11.348 4 11.12V8C4 7.73478 4.10536 7.48043 4.29289 7.29289C4.48043 7.10536 4.73478 7 5 7ZM4 18V13.286C4.191 13.409 4.374 13.56 4.583 13.747C5.178 14.276 5.991 15 7.495 15C9 15 9.814 14.276 10.409 13.747C10.916 13.297 11.25 13 11.995 13C12.74 13 13.075 13.298 13.582 13.747C14.177 14.276 14.991 15 16.497 15C18.003 15 18.818 14.276 19.413 13.747C19.624 13.559 19.808 13.407 20.001 13.283L20.002 18H4Z" fill="#84848D"/>
</svg>
